<svg width="360" height="260" viewBox="0 0 360 260" fill="none" xmlns="http://www.w3.org/2000/svg">
  <rect x="88" y="34" width="196" height="166" rx="28" fill="url(#card)" stroke="#C7DAFF"></rect>
  <rect x="112" y="62" width="70" height="104" rx="16" fill="white" stroke="#D7E4FF"></rect>
  <rect x="196" y="62" width="64" height="104" rx="16" fill="white" stroke="#D7E4FF"></rect>
  <rect x="126" y="82" width="38" height="8" rx="4" fill="#D6E3FF"></rect>
  <rect x="126" y="102" width="46" height="8" rx="4" fill="#3164E0"></rect>
  <rect x="126" y="122" width="34" height="8" rx="4" fill="#9DB8FF"></rect>
  <circle cx="228" cy="108" r="24" fill="#EAF1FF"></circle>
  <path d="M228 84a24 24 0 1 1-16.97 40.97L228 108V84Z" fill="#3164E0"></path>
  <path d="M228 84a24 24 0 0 1 24 24h-24V84Z" fill="#6EA0FF"></path>
  <rect x="210" y="142" width="10" height="24" rx="5" fill="#BBD0FF"></rect>
  <rect x="226" y="132" width="10" height="34" rx="5" fill="#7EA6FF"></rect>
  <rect x="242" y="120" width="10" height="46" rx="5" fill="#3164E0"></rect>
  <rect x="54" y="88" width="52" height="52" rx="16" fill="white" stroke="#D7E4FF"></rect>
  <path d="M74 103h13l8 8v22H74v-30Z" stroke="#3164E0" stroke-width="3" stroke-linejoin="round"></path>
  <path d="M87 103v9h8" stroke="#3164E0" stroke-width="3" stroke-linejoin="round"></path>
  <rect x="274" y="50" width="58" height="58" rx="18" fill="white" stroke="#D7E4FF"></rect>
  <path d="M303 68l16 7v12c0 11-7 18-16 22-9-4-16-11-16-22V75l16-7Z" stroke="#3164E0" stroke-width="3"></path>
  <path d="M296 87l5 5 10-13" stroke="#3164E0" stroke-width="3" stroke-linecap="round" stroke-linejoin="round"></path>
  <circle cx="72" cy="184" r="20" fill="#EAF1FF"></circle>
  <circle cx="305" cy="178" r="28" fill="#EAF1FF"></circle>
  <defs>
    <linearGradient id="card" x1="88" y1="34" x2="284" y2="200" gradientUnits="userSpaceOnUse">
      <stop stop-color="#F8FBFF"></stop>
      <stop offset="1" stop-color="#DDEBFF"></stop>
    </linearGradient>
  </defs>
</svg>